<?xml version="1.0" encoding="utf-8"?>
<!-- Generator: Adobe Illustrator 20.1.0, SVG Export Plug-In . SVG Version: 6.00 Build 0)  -->
<svg version="1.1" id="Layer_1" xmlns="http://www.w3.org/2000/svg" xmlns:xlink="http://www.w3.org/1999/xlink" x="0px" y="0px"
	 viewBox="0 0 729.9 364.5" style="enable-background:new 0 0 729.9 364.5;" xml:space="preserve">
<style type="text/css">
	.st0{fill:url(#SVGID_1_);}
	.st1{fill:url(#SVGID_2_);}
	.st2{fill:url(#SVGID_3_);}
	.st3{fill:url(#SVGID_4_);}
	.st4{fill:url(#SVGID_5_);}
</style>
<g>
	<linearGradient id="SVGID_1_" gradientUnits="userSpaceOnUse" x1="-144.4468" y1="234.1967" x2="868.986" y2="-121.0271">
		<stop  offset="0" style="stop-color:#FF15F3"/>
		<stop  offset="8.414847e-02" style="stop-color:#E82CF4"/>
		<stop  offset="0.3235" style="stop-color:#AD68F8"/>
		<stop  offset="0.5432" style="stop-color:#7D97FB"/>
		<stop  offset="0.7363" style="stop-color:#5BBAFD"/>
		<stop  offset="0.8951" style="stop-color:#47CEFF"/>
		<stop  offset="1" style="stop-color:#3FD6FF"/>
	</linearGradient>
	<path class="st0" d="M149.9,72.6c-13,0-25.5,3.2-37.7,9.6c-12.2,6.3-22.1,15-29.8,25h-0.8L103.9,0v0c-26,0-49.1,18.5-54.4,44.3
		L0,283.2c26.3,0,49.1-18.5,54.4-44.3l13.8-66.8c1.8-8.5,4.7-16.6,8.5-24.4c3.8-7.8,8.4-14.3,13.7-19.6c5.6-5.6,11.8-10.2,18.8-14.1
		c7-3.8,15-5.8,24-5.8c8.2,0,14.5,1.2,18.8,3.6c4.4,2.4,7.5,5.2,9.3,8.5c1.8,3.3,2.8,6.6,3,9.9c0.1,3.3,0.2,5.8,0.2,7.3
		c0,2.9-0.3,6-1,9.1c-0.7,3.2-1.4,6.5-2.2,9.9l-26.2,126.5h0c26.3,0,49.1-18.5,54.5-44.3l18.1-86.6c0.8-3.7,1.3-7.9,1.6-12.7
		c0.3-4.8,0.4-9,0.4-12.7c0-16.7-4.8-29.9-14.5-39.7C185.7,77.5,170.6,72.6,149.9,72.6z"/>
	<linearGradient id="SVGID_2_" gradientUnits="userSpaceOnUse" x1="-106.3997" y1="342.743" x2="907.0331" y2="-12.4809">
		<stop  offset="0" style="stop-color:#FF15F3"/>
		<stop  offset="8.414847e-02" style="stop-color:#E82CF4"/>
		<stop  offset="0.3235" style="stop-color:#AD68F8"/>
		<stop  offset="0.5432" style="stop-color:#7D97FB"/>
		<stop  offset="0.7363" style="stop-color:#5BBAFD"/>
		<stop  offset="0.8951" style="stop-color:#47CEFF"/>
		<stop  offset="1" style="stop-color:#3FD6FF"/>
	</linearGradient>
	<path class="st1" d="M399.2,286.9c10.5-2.2,18.7-10.4,21-20.9l3.4-15.4c-2.6,0.3-5.3,0.7-7.9,1.4c-2.6,0.7-5.3,1-7.9,1
		c-3.7,0-6.2-0.8-7.5-2.4c-1.3-1.6-2-3.8-2-6.7c0-2.9,0.5-6.1,1.4-9.5c0.9-3.4,1.8-7,2.6-10.7l15.1-72.6c2.6-11.6,4-21.9,4-30.9
		c0-3.7-0.5-8.3-1.6-13.7c-1.1-5.4-4-10.6-8.9-15.7c-4.9-5-12.6-9.3-23-12.9c-10.5-3.6-24.9-5.4-43.4-5.4c-12.2,0-23.6,1.1-34.3,3.4
		c-10.7,2.3-20.3,6.1-28.8,11.5c-8.5,5.4-15.6,12.3-21.4,20.9c-5.8,8.6-9.9,19.8-12.3,31.8h3.1c19.1,0,37-7.9,51.1-20.7
		c2.1-1.9,4.5-3.5,7.1-4.7c9.1-4.4,20-6.5,32.7-6.5c9.3,0,17.3,1.7,24.2,5c6.9,3.3,10.3,9.9,10.3,19.6c0,7.7-1.9,14-5.8,18.8
		c-3.8,4.9-9.9,7.6-18,8.1c-14.8,1.3-29.9,2.5-45.2,3.6c-11.4,0.8-22.2,2.5-32.5,5.2c-10.3,2.6-19.4,6.7-27.4,12.3
		s-14.3,12.6-19,21.2c-4.8,8.6-7.1,19.2-7.1,31.9c0,9,1.7,16.9,5.2,23.8c3.4,6.9,8.1,12.6,14.1,17.1c6,4.5,12.8,7.9,20.4,10.3
		c7.7,2.4,15.7,3.6,24.2,3.6c12.7,0,25.1-2.1,37.3-6.3c12.2-4.2,22.7-10.8,31.7-19.8c0.5,7.9,3.3,14.3,8.3,19c5,4.8,11.4,7.1,19,7.1
		c6.1,0,12-0.6,17.8-1.8C399.1,287,399.2,287,399.2,286.9z M360.4,210c-2.8,8.6-6.6,16.1-11.5,22.4c-4.9,6.3-11.1,11.4-18.6,15.1
		c-7.5,3.7-16.9,5.6-28,5.6c-4.2,0-8.5-0.5-12.7-1.4c-4.2-0.9-8.1-2.4-11.5-4.4c-3.4-2-6.3-4.6-8.5-7.9c-2.3-3.3-3.4-7.5-3.4-12.5
		c0-8.5,2.6-15,7.7-19.6c5.2-4.6,11.4-8.1,18.6-10.3c7.3-2.2,15.1-3.6,23.4-4.2c8.3-0.5,15.7-1.1,22-1.6c5-0.5,10.2-1.4,15.5-2.8
		c5.3-1.3,9.5-3.6,12.7-6.7l0.8,0.8C365.3,192.3,363.1,201.4,360.4,210z"/>
	<linearGradient id="SVGID_3_" gradientUnits="userSpaceOnUse" x1="-137.381" y1="254.3549" x2="876.0518" y2="-100.8689">
		<stop  offset="0" style="stop-color:#FF15F3"/>
		<stop  offset="8.414847e-02" style="stop-color:#E82CF4"/>
		<stop  offset="0.3235" style="stop-color:#AD68F8"/>
		<stop  offset="0.5432" style="stop-color:#7D97FB"/>
		<stop  offset="0.7363" style="stop-color:#5BBAFD"/>
		<stop  offset="0.8951" style="stop-color:#47CEFF"/>
		<stop  offset="1" style="stop-color:#3FD6FF"/>
	</linearGradient>
	<path class="st2" d="M534.8,0.2c-25.4,0-47.9,18-52.9,42.9v0.1h45.2l8.7-43H534.8z"/>
	<linearGradient id="SVGID_4_" gradientUnits="userSpaceOnUse" x1="-81.5416" y1="413.6617" x2="931.8912" y2="58.4378">
		<stop  offset="0" style="stop-color:#FF15F3"/>
		<stop  offset="8.414847e-02" style="stop-color:#E82CF4"/>
		<stop  offset="0.3235" style="stop-color:#AD68F8"/>
		<stop  offset="0.5432" style="stop-color:#7D97FB"/>
		<stop  offset="0.7363" style="stop-color:#5BBAFD"/>
		<stop  offset="0.8951" style="stop-color:#47CEFF"/>
		<stop  offset="1" style="stop-color:#3FD6FF"/>
	</linearGradient>
	<path class="st3" d="M465.7,122.4l-34.9,169.1c-0.8,4-1.6,8.2-2.4,12.7c-0.8,4.5-2,8.5-3.6,12.1c-1.6,3.6-3.7,6.5-6.3,8.9
		c-2.6,2.4-6.2,3.6-10.7,3.6c-3.4,0-6.5-0.1-9.1-0.4c-2.6-0.3-4.8-1.1-6.3-2.4l-7.9,36.1c7.4,1.6,15.7,2.4,25,2.4
		c14.5,0,26.2-2.8,34.9-8.5c8.7-5.7,15.7-15.4,21-29.2c2.9-6.3,5.2-12.8,6.7-19.4c1.6-6.6,3.2-13.6,4.8-21L520,78.1h0
		C493.7,78.1,471,96.6,465.7,122.4z"/>
	<linearGradient id="SVGID_5_" gradientUnits="userSpaceOnUse" x1="-76.145" y1="429.0577" x2="937.2878" y2="73.8339">
		<stop  offset="0" style="stop-color:#FF15F3"/>
		<stop  offset="8.414847e-02" style="stop-color:#E82CF4"/>
		<stop  offset="0.3235" style="stop-color:#AD68F8"/>
		<stop  offset="0.5432" style="stop-color:#7D97FB"/>
		<stop  offset="0.7363" style="stop-color:#5BBAFD"/>
		<stop  offset="0.8951" style="stop-color:#47CEFF"/>
		<stop  offset="1" style="stop-color:#3FD6FF"/>
	</linearGradient>
	<path class="st4" d="M726.5,135.3c-2.3-11.1-6.5-21.3-12.9-30.5c-6.3-9.3-15.2-16.9-26.6-23c-11.4-6.1-26.2-9.1-44.4-9.1
		c-18.2,0-34.4,3.6-48.6,10.9c-14.2,7.3-26.1,16.9-35.7,28.8c-9.7,11.9-17,25.4-22,40.5c-5,15.1-7.5,30.5-7.5,46.4
		c0,14,2.2,26.5,6.7,37.5c4.5,11,10.7,20.4,18.6,28.2c7.9,7.8,17.4,13.8,28.4,17.8c11,4.1,22.9,6.1,35.9,6.1
		c24.9,0,45.7-5.3,62.7-16.2c16.9-11,29-28.3,36.1-52.3h-1c-21.3,0-41.5,8.1-57.9,21.8c-1.3,1.1-2.7,2-4.1,2.9
		c-8.7,5.6-19.2,8.3-31.3,8.3c-17.5,0-30-4.4-37.5-13.1c-7.5-8.7-11.3-20.3-11.3-34.5v-6.3c0-1.1,0.1-2.2,0.2-3.3
		c0.1-1.1,0.3-1.7,0.6-3.7h152.7c0.5-3,1.1-7.2,1.6-11.4c0.5-4.2,0.8-8.8,0.8-13.8C729.9,156.9,728.7,146.4,726.5,135.3z
		 M684.9,156.3c0,1.1,0,2.1,0,3c0,0.9-0.4,1.9-0.7,2.9H579.1c4.5-15,11.8-28.7,21.8-38.9c10-10.2,23.5-15.2,40.5-15.2
		c13.5,0,24.2,4,31.9,11.8c7.7,7.8,11.6,17.8,11.6,30V156.3z"/>
</g>
</svg>
